<mxfile host="app.diagrams.net" modified="2023-12-26T03:21:41.523Z" agent="Mozilla/5.0 (Windows NT 10.0; Win64; x64) AppleWebKit/537.36 (KHTML, like Gecko) Chrome/120.0.0.0 Safari/537.36" etag="C1WBkUPePvH8z4VksJEG" version="22.1.11" type="device">
  <diagram name="Page-1" id="MoquzqLfV1Vo6wvfgmTN">
    <mxGraphModel dx="1358" dy="549" grid="1" gridSize="10" guides="1" tooltips="1" connect="1" arrows="1" fold="1" page="1" pageScale="1" pageWidth="850" pageHeight="1100" math="0" shadow="0">
      <root>
        <mxCell id="0" />
        <mxCell id="1" parent="0" />
        <mxCell id="vIauBNi_tluedBcqbm4l-1" value="" style="whiteSpace=wrap;html=1;aspect=fixed;" vertex="1" parent="1">
          <mxGeometry x="120" width="440" height="440" as="geometry" />
        </mxCell>
        <mxCell id="vIauBNi_tluedBcqbm4l-4" value="" style="endArrow=none;dashed=1;html=1;rounded=0;exitX=-0.005;exitY=0.08;exitDx=0;exitDy=0;exitPerimeter=0;entryX=1.001;entryY=0.085;entryDx=0;entryDy=0;entryPerimeter=0;" edge="1" parent="1" source="vIauBNi_tluedBcqbm4l-1" target="vIauBNi_tluedBcqbm4l-1">
          <mxGeometry width="50" height="50" relative="1" as="geometry">
            <mxPoint x="470" y="110" as="sourcePoint" />
            <mxPoint x="520" y="60" as="targetPoint" />
          </mxGeometry>
        </mxCell>
        <mxCell id="vIauBNi_tluedBcqbm4l-5" value="&lt;b&gt;Create A Task&lt;/b&gt;" style="text;html=1;strokeColor=none;fillColor=none;align=center;verticalAlign=middle;whiteSpace=wrap;rounded=0;" vertex="1" parent="1">
          <mxGeometry x="120" y="10" width="100" height="30" as="geometry" />
        </mxCell>
        <mxCell id="vIauBNi_tluedBcqbm4l-6" value="Tittle" style="text;html=1;strokeColor=none;fillColor=none;align=center;verticalAlign=middle;whiteSpace=wrap;rounded=0;" vertex="1" parent="1">
          <mxGeometry x="130" y="50" width="60" height="30" as="geometry" />
        </mxCell>
        <mxCell id="vIauBNi_tluedBcqbm4l-7" value="" style="rounded=0;whiteSpace=wrap;html=1;" vertex="1" parent="1">
          <mxGeometry x="130" y="70" width="430" height="30" as="geometry" />
        </mxCell>
        <mxCell id="vIauBNi_tluedBcqbm4l-8" value="Description" style="text;html=1;strokeColor=none;fillColor=none;align=center;verticalAlign=middle;whiteSpace=wrap;rounded=0;" vertex="1" parent="1">
          <mxGeometry x="130" y="100" width="60" height="30" as="geometry" />
        </mxCell>
        <mxCell id="vIauBNi_tluedBcqbm4l-9" value="" style="rounded=0;whiteSpace=wrap;html=1;" vertex="1" parent="1">
          <mxGeometry x="130" y="130" width="430" height="70" as="geometry" />
        </mxCell>
        <mxCell id="vIauBNi_tluedBcqbm4l-10" value="Estimation" style="text;html=1;strokeColor=none;fillColor=none;align=center;verticalAlign=middle;whiteSpace=wrap;rounded=0;" vertex="1" parent="1">
          <mxGeometry x="130" y="210" width="60" height="30" as="geometry" />
        </mxCell>
        <mxCell id="vIauBNi_tluedBcqbm4l-12" value="" style="rounded=0;whiteSpace=wrap;html=1;" vertex="1" parent="1">
          <mxGeometry x="190" y="215" width="50" height="20" as="geometry" />
        </mxCell>
        <mxCell id="vIauBNi_tluedBcqbm4l-13" value="Priority" style="text;html=1;strokeColor=none;fillColor=none;align=center;verticalAlign=middle;whiteSpace=wrap;rounded=0;" vertex="1" parent="1">
          <mxGeometry x="260" y="210" width="60" height="30" as="geometry" />
        </mxCell>
        <mxCell id="vIauBNi_tluedBcqbm4l-15" value="Asigned To" style="text;html=1;strokeColor=none;fillColor=none;align=center;verticalAlign=middle;whiteSpace=wrap;rounded=0;" vertex="1" parent="1">
          <mxGeometry x="130" y="250" width="70" height="30" as="geometry" />
        </mxCell>
        <mxCell id="vIauBNi_tluedBcqbm4l-16" value="" style="rounded=0;whiteSpace=wrap;html=1;" vertex="1" parent="1">
          <mxGeometry x="210" y="250" width="50" height="20" as="geometry" />
        </mxCell>
        <mxCell id="vIauBNi_tluedBcqbm4l-17" value="" style="rounded=0;whiteSpace=wrap;html=1;" vertex="1" parent="1">
          <mxGeometry x="320" y="215" width="50" height="20" as="geometry" />
        </mxCell>
        <mxCell id="vIauBNi_tluedBcqbm4l-19" value="" style="rounded=1;whiteSpace=wrap;html=1;" vertex="1" parent="1">
          <mxGeometry x="410" y="290" width="50" height="20" as="geometry" />
        </mxCell>
        <mxCell id="vIauBNi_tluedBcqbm4l-18" value="Cancel" style="text;html=1;strokeColor=none;fillColor=none;align=center;verticalAlign=middle;whiteSpace=wrap;rounded=0;" vertex="1" parent="1">
          <mxGeometry x="400" y="290" width="70" height="15" as="geometry" />
        </mxCell>
        <mxCell id="vIauBNi_tluedBcqbm4l-20" value="" style="rounded=1;whiteSpace=wrap;html=1;" vertex="1" parent="1">
          <mxGeometry x="490" y="290" width="50" height="20" as="geometry" />
        </mxCell>
        <mxCell id="vIauBNi_tluedBcqbm4l-21" value="Save" style="text;html=1;strokeColor=none;fillColor=none;align=center;verticalAlign=middle;whiteSpace=wrap;rounded=0;" vertex="1" parent="1">
          <mxGeometry x="480" y="292.5" width="70" height="15" as="geometry" />
        </mxCell>
      </root>
    </mxGraphModel>
  </diagram>
</mxfile>
